<svg width="312" height="668" viewBox="0 0 312 668" fill="none" xmlns="http://www.w3.org/2000/svg">
<path d="M212 502C212 604.5 220.415 662 311 662" stroke="#09814A" stroke-width="12"/>
<path d="M175 502C175 604.5 179.93 662 233 662" stroke="#09814A" stroke-width="12"/>
<path d="M100 502C99.9999 604.5 91.5 662 -4.29153e-06 662" stroke="#09814A" stroke-width="12"/>
<path d="M134 502C134 604.5 128.475 662 69 662" stroke="#09814A" stroke-width="12"/>
<path d="M309 410L309 479.807L265 517L265 444.904L309 410Z" fill="#09814A"/>
<rect x="264.5" y="445.5" width="71" height="261" transform="rotate(90 264.5 445.5)" fill="#F5F5F5" stroke="#09814A"/>
<path d="M57.1514 410.5L307.578 410.5L264.824 444.821L4.65784 445.496L57.1514 410.5Z" fill="#F5F5F5" stroke="#09814A"/>
<line x1="210" y1="304" x2="210" y2="428" stroke="#09814A" stroke-width="12"/>
<line x1="173" y1="304" x2="173" y2="428" stroke="#09814A" stroke-width="12"/>
<line x1="132" y1="304" x2="132" y2="428" stroke="#09814A" stroke-width="12"/>
<line x1="98" y1="304" x2="98" y2="428" stroke="#09814A" stroke-width="12"/>
<path d="M309 278L309 347.807L265 385L265 312.904L309 278Z" fill="#09814A"/>
<rect x="264.5" y="313.5" width="71" height="261" transform="rotate(90 264.5 313.5)" fill="#F5F5F5" stroke="#09814A"/>
<path d="M57.1514 278.5L307.578 278.5L264.824 312.821L4.65784 313.496L57.1514 278.5Z" fill="#F5F5F5" stroke="#09814A"/>
<line x1="213.5" y1="172" x2="213.5" y2="296" stroke="#09814A" stroke-width="7"/>
<line x1="176.5" y1="172" x2="176.5" y2="296" stroke="#09814A" stroke-width="7"/>
<line x1="135.5" y1="172" x2="135.5" y2="296" stroke="#09814A" stroke-width="7"/>
<line x1="101.5" y1="172" x2="101.5" y2="296" stroke="#09814A" stroke-width="7"/>
<path d="M309 146L309 215.807L265 253L265 180.904L309 146Z" fill="#09814A"/>
<rect x="264.5" y="181.5" width="71" height="261" transform="rotate(90 264.5 181.5)" fill="#F5F5F5" stroke="#09814A"/>
<path d="M57.1514 146.5L307.578 146.5L264.824 180.821L4.65784 181.496L57.1514 146.5Z" fill="#F5F5F5" stroke="#09814A"/>
<path d="M44.3986 208.432H42.4186L41.3746 204.112H34.8586L34.8586 222.94L37.8826 224.02V226L28.7386 226L28.7386 224.02L31.7626 222.94L31.7626 204.112L25.2466 204.112L24.2026 208.432H22.2226L22.2226 201.52L44.3986 201.52L44.3986 208.432ZM54.1897 207.424C56.6377 207.424 58.6177 208.192 60.1297 209.728C61.6657 211.24 62.4337 213.496 62.4337 216.496V217.936H48.3217C48.4417 219.544 48.7297 220.78 49.1857 221.644C49.6657 222.484 50.3497 223.072 51.2377 223.408C52.1497 223.744 53.3977 223.912 54.9817 223.912C57.2617 223.912 59.5177 223.636 61.7497 223.084L61.7497 225.676C60.8137 225.916 59.7217 226.108 58.4737 226.252C57.2257 226.42 56.0377 226.504 54.9097 226.504C51.7177 226.504 49.2937 225.784 47.6377 224.344C45.9817 222.904 45.1537 220.444 45.1537 216.964C45.1537 213.724 45.9697 211.324 47.6017 209.764C49.2337 208.204 51.4297 207.424 54.1897 207.424ZM54.0097 210.016C52.1377 210.016 50.7697 210.436 49.9057 211.276C49.0417 212.116 48.5257 213.484 48.3577 215.38H59.2297C59.0857 213.604 58.5937 212.272 57.7537 211.384C56.9137 210.472 55.6657 210.016 54.0097 210.016ZM74.629 207.424C76.621 207.424 78.025 207.676 78.841 208.18C79.657 208.684 80.065 209.488 80.065 210.592C80.065 212.536 78.913 213.508 76.609 213.508L75.025 209.908C73.129 209.908 71.701 210.124 70.741 210.556C69.781 210.988 69.109 211.696 68.725 212.68C68.365 213.64 68.185 215.044 68.185 216.892C68.185 218.788 68.389 220.24 68.797 221.248C69.229 222.256 69.877 222.952 70.741 223.336C71.629 223.72 72.829 223.912 74.341 223.912C75.373 223.912 76.309 223.852 77.149 223.732C77.989 223.588 78.865 223.348 79.777 223.012L79.777 225.604C79.033 225.892 78.157 226.108 77.149 226.252C76.165 226.42 75.181 226.504 74.197 226.504C71.221 226.504 68.941 225.796 67.357 224.38C65.797 222.94 65.017 220.48 65.017 217C65.017 213.616 65.809 211.18 67.393 209.692C69.001 208.18 71.413 207.424 74.629 207.424ZM104.114 224.02V226H98.6419L98.6419 214.084C98.6419 212.668 98.2939 211.648 97.5979 211.024C96.9259 210.376 95.9299 210.052 94.6099 210.052C93.7699 210.052 92.9419 210.16 92.1259 210.376C91.3339 210.592 90.1699 210.976 88.6339 211.528L88.6339 222.94L91.0819 224.02V226H83.1619V224.02L85.6099 222.94L85.6099 203.5L83.1619 202.492V200.44H88.6339L88.6339 209.188C89.8579 208.564 91.0219 208.12 92.1259 207.856C93.2539 207.568 94.4059 207.424 95.5819 207.424C97.0939 207.424 98.2939 207.664 99.1819 208.144C100.07 208.6 100.706 209.344 101.09 210.376C101.474 211.384 101.666 212.752 101.666 214.48L101.666 222.94L104.114 224.02ZM127.985 224.02V226H122.513L122.513 214.084C122.513 212.668 122.165 211.648 121.469 211.024C120.797 210.376 119.801 210.052 118.481 210.052C117.641 210.052 116.813 210.16 115.997 210.376C115.205 210.592 114.041 210.976 112.505 211.528L112.505 222.94L115.313 224.02V226L107.033 226V224.02L109.481 222.94L109.481 210.988L107.033 209.98V207.928H111.029L111.965 209.404C113.309 208.708 114.581 208.204 115.781 207.892C116.981 207.58 118.205 207.424 119.453 207.424C120.965 207.424 122.165 207.664 123.053 208.144C123.941 208.6 124.577 209.344 124.961 210.376C125.345 211.384 125.537 212.752 125.537 214.48L125.537 222.94L127.985 224.02ZM139.868 207.424C142.628 207.424 144.836 208.192 146.492 209.728C148.172 211.24 149.012 213.652 149.012 216.964C149.012 220.276 148.172 222.7 146.492 224.236C144.836 225.748 142.628 226.504 139.868 226.504C137.108 226.504 134.888 225.748 133.208 224.236C131.552 222.7 130.724 220.276 130.724 216.964C130.724 213.652 131.552 211.24 133.208 209.728C134.888 208.192 137.108 207.424 139.868 207.424ZM139.868 210.016C138.428 210.016 137.276 210.22 136.412 210.628C135.572 211.036 134.936 211.744 134.504 212.752C134.096 213.76 133.892 215.164 133.892 216.964C133.892 218.764 134.096 220.168 134.504 221.176C134.936 222.184 135.572 222.892 136.412 223.3C137.276 223.708 138.428 223.912 139.868 223.912C141.308 223.912 142.448 223.708 143.288 223.3C144.152 222.892 144.788 222.184 145.196 221.176C145.628 220.168 145.844 218.764 145.844 216.964C145.844 215.164 145.628 213.76 145.196 212.752C144.788 211.744 144.152 211.036 143.288 210.628C142.448 210.22 141.308 210.016 139.868 210.016ZM157.61 222.94L160.058 224.02L160.058 226H152.138L152.138 224.02L154.586 222.94L154.586 203.5L152.138 202.492V200.44H157.61L157.61 222.94ZM171.931 207.424C174.691 207.424 176.899 208.192 178.555 209.728C180.235 211.24 181.075 213.652 181.075 216.964C181.075 220.276 180.235 222.7 178.555 224.236C176.899 225.748 174.691 226.504 171.931 226.504C169.171 226.504 166.951 225.748 165.271 224.236C163.615 222.7 162.787 220.276 162.787 216.964C162.787 213.652 163.615 211.24 165.271 209.728C166.951 208.192 169.171 207.424 171.931 207.424ZM171.931 210.016C170.491 210.016 169.339 210.22 168.475 210.628C167.635 211.036 166.999 211.744 166.567 212.752C166.159 213.76 165.955 215.164 165.955 216.964C165.955 218.764 166.159 220.168 166.567 221.176C166.999 222.184 167.635 222.892 168.475 223.3C169.339 223.708 170.491 223.912 171.931 223.912C173.371 223.912 174.511 223.708 175.351 223.3C176.215 222.892 176.851 222.184 177.259 221.176C177.691 220.168 177.907 218.764 177.907 216.964C177.907 215.164 177.691 213.76 177.259 212.752C176.851 211.744 176.215 211.036 175.351 210.628C174.511 210.22 173.371 210.016 171.931 210.016ZM202.021 209.98L199.321 210.844C199.801 211.756 200.041 212.824 200.041 214.048C200.041 216.184 199.357 217.78 197.989 218.836C196.621 219.868 194.689 220.384 192.193 220.384C190.201 220.384 188.593 220.072 187.369 219.448C186.793 219.928 186.505 220.54 186.505 221.284C186.505 221.956 186.757 222.448 187.261 222.76C187.789 223.048 188.665 223.192 189.889 223.192H196.513C198.457 223.192 199.861 223.588 200.725 224.38C201.589 225.148 202.021 226.36 202.021 228.016C202.021 230.224 201.265 231.844 199.753 232.876C198.241 233.908 195.865 234.424 192.625 234.424C189.865 234.424 187.621 233.98 185.893 233.092C184.189 232.228 183.337 230.812 183.337 228.844C183.337 227.932 183.553 227.152 183.985 226.504C184.441 225.88 185.125 225.424 186.037 225.136C184.597 224.536 183.877 223.42 183.877 221.788C183.877 220.252 184.561 219.148 185.929 218.476C184.801 217.396 184.237 215.896 184.237 213.976C184.237 211.816 184.921 210.184 186.289 209.08C187.681 207.976 189.613 207.424 192.085 207.424C193.405 207.424 194.605 207.592 195.685 207.928L202.021 207.928L202.021 209.98ZM192.121 218.044C193.441 218.044 194.449 217.9 195.145 217.612C195.865 217.324 196.357 216.892 196.621 216.316C196.885 215.716 197.017 214.912 197.017 213.904C197.017 212.896 196.885 212.104 196.621 211.528C196.357 210.928 195.865 210.484 195.145 210.196C194.449 209.908 193.441 209.764 192.121 209.764C190.801 209.764 189.781 209.92 189.061 210.232C188.365 210.52 187.885 210.964 187.621 211.564C187.357 212.14 187.225 212.932 187.225 213.94C187.225 214.948 187.357 215.74 187.621 216.316C187.885 216.892 188.365 217.324 189.061 217.612C189.757 217.9 190.777 218.044 192.121 218.044ZM188.629 226C187.813 226 187.189 226.204 186.757 226.612C186.349 227.044 186.145 227.668 186.145 228.484C186.145 229.708 186.649 230.596 187.657 231.148C188.689 231.724 190.405 232.012 192.805 232.012C194.485 232.012 195.769 231.892 196.657 231.652C197.545 231.436 198.157 231.076 198.493 230.572C198.853 230.092 199.033 229.42 199.033 228.556C199.033 227.596 198.829 226.924 198.421 226.54C198.037 226.18 197.317 226 196.261 226H188.629ZM225.508 207.928L225.508 209.944L222.556 210.952L214.6 228.7C214 230.068 213.328 231.124 212.584 231.868C211.864 232.636 210.94 233.188 209.812 233.524C208.708 233.884 207.268 234.064 205.492 234.064H204.772V231.4C205.684 231.472 206.56 231.508 207.4 231.508C208.312 231.508 209.032 231.388 209.56 231.148C210.112 230.908 210.652 230.404 211.18 229.636C211.732 228.892 212.392 227.692 213.16 226.036L206.248 210.952L203.296 209.944L203.296 207.928L212.476 207.928L212.476 209.944L209.56 210.916L214.744 222.544L219.856 210.916L216.94 209.944L216.94 207.928H225.508Z" fill="#09814A"/>
<path d="M211.5 162C211.5 59.4999 220 2.00012 311.5 2" stroke="#09814A" stroke-width="4"/>
<path d="M175 162C175 59.4999 179.93 2.00012 233 2" stroke="#09814A" stroke-width="4"/>
<path d="M100 162C99.9999 59.4999 91.5 2.00012 -4.29153e-06 2" stroke="#09814A" stroke-width="4"/>
<path d="M134 162C134 59.4999 128.475 2.00012 69 2" stroke="#09814A" stroke-width="4"/>
<path d="M31.404 335.572L28.74 336.616L28.74 354.94L31.404 356.02V358H22.98L22.98 356.02L25.644 354.94L25.644 336.616L22.98 335.572L22.98 333.52H31.404L31.404 335.572ZM55.983 356.02V358H50.511L50.511 346.084C50.511 344.668 50.163 343.648 49.467 343.024C48.795 342.376 47.799 342.052 46.479 342.052C45.639 342.052 44.811 342.16 43.995 342.376C43.203 342.592 42.039 342.976 40.503 343.528L40.503 354.94L43.311 356.02V358L35.031 358V356.02L37.479 354.94L37.479 342.988L35.031 341.98V339.928L39.027 339.928L39.963 341.404C41.307 340.708 42.579 340.204 43.779 339.892C44.979 339.58 46.203 339.424 47.451 339.424C48.963 339.424 50.163 339.664 51.051 340.144C51.939 340.6 52.575 341.344 52.959 342.376C53.343 343.384 53.535 344.752 53.535 346.48L53.535 354.94L55.983 356.02ZM79.8541 356.02V358H74.3821L74.3821 346.084C74.3821 344.668 74.0341 343.648 73.3381 343.024C72.6661 342.376 71.6701 342.052 70.3501 342.052C69.5101 342.052 68.6821 342.16 67.8661 342.376C67.0741 342.592 65.9101 342.976 64.3741 343.528V354.94L67.1821 356.02V358H58.9021V356.02L61.3501 354.94L61.3501 342.988L58.9021 341.98V339.928H62.8981L63.8341 341.404C65.1781 340.708 66.4501 340.204 67.6501 339.892C68.8501 339.58 70.0741 339.424 71.3221 339.424C72.8341 339.424 74.0341 339.664 74.9221 340.144C75.8101 340.6 76.4461 341.344 76.8301 342.376C77.2141 343.384 77.4061 344.752 77.4061 346.48V354.94L79.8541 356.02ZM91.7372 339.424C94.4972 339.424 96.7052 340.192 98.3612 341.728C100.041 343.24 100.881 345.652 100.881 348.964C100.881 352.276 100.041 354.7 98.3612 356.236C96.7052 357.748 94.4972 358.504 91.7372 358.504C88.9772 358.504 86.7572 357.748 85.0772 356.236C83.4212 354.7 82.5932 352.276 82.5932 348.964C82.5932 345.652 83.4212 343.24 85.0772 341.728C86.7572 340.192 88.9772 339.424 91.7372 339.424ZM91.7372 342.016C90.2972 342.016 89.1452 342.22 88.2812 342.628C87.4412 343.036 86.8052 343.744 86.3732 344.752C85.9652 345.76 85.7612 347.164 85.7612 348.964C85.7612 350.764 85.9652 352.168 86.3732 353.176C86.8052 354.184 87.4412 354.892 88.2812 355.3C89.1452 355.708 90.2972 355.912 91.7372 355.912C93.1772 355.912 94.3172 355.708 95.1572 355.3C96.0212 354.892 96.6572 354.184 97.0652 353.176C97.4972 352.168 97.7132 350.764 97.7132 348.964C97.7132 347.164 97.4972 345.76 97.0652 344.752C96.6572 343.744 96.0212 343.036 95.1572 342.628C94.3172 342.22 93.1772 342.016 91.7372 342.016ZM122.844 339.928V341.944L120.756 342.952L114.348 358H110.892L104.448 342.952L102.36 341.944V339.928L110.208 339.928V341.944L107.76 342.916L112.908 355.336L118.056 342.916L115.608 341.944V339.928H122.844ZM143.548 356.02V358H139.264L138.328 355.408C137.344 356.416 136.276 357.16 135.124 357.64C133.996 358.12 132.724 358.36 131.308 358.36C129.004 358.36 127.3 357.916 126.196 357.028C125.092 356.14 124.54 354.7 124.54 352.708C124.54 350.596 125.2 349.072 126.52 348.136C127.84 347.176 129.964 346.696 132.892 346.696C134.044 346.696 135.052 346.804 135.916 347.02C136.804 347.212 137.524 347.452 138.076 347.74V346.336C138.076 345.232 137.932 344.38 137.644 343.78C137.38 343.156 136.888 342.712 136.168 342.448C135.472 342.16 134.452 342.016 133.108 342.016C130.684 342.016 128.164 342.304 125.548 342.88V340.288C128.212 339.712 130.756 339.424 133.18 339.424C135.436 339.424 137.128 339.652 138.256 340.108C139.408 340.564 140.164 341.224 140.524 342.088C140.908 342.952 141.1 344.152 141.1 345.688V354.94L143.548 356.02ZM127.708 352.492C127.708 353.668 127.996 354.508 128.572 355.012C129.172 355.516 130.252 355.768 131.812 355.768C132.964 355.768 134.068 355.564 135.124 355.156C136.204 354.724 137.188 354.136 138.076 353.392V349.792C136.732 349.408 135.112 349.216 133.216 349.216C131.128 349.216 129.688 349.48 128.896 350.008C128.104 350.536 127.708 351.364 127.708 352.492ZM155.008 358.288C152.704 358.288 151.048 357.82 150.04 356.884C149.056 355.948 148.564 354.364 148.564 352.132V342.448H145.756V340.432L148.564 339.928L149.644 334.708H151.588V339.928L157.744 339.964L157.744 342.484L151.588 342.448V352.132C151.588 353.116 151.708 353.86 151.948 354.364C152.188 354.868 152.584 355.216 153.136 355.408C153.688 355.6 154.492 355.696 155.548 355.696C156.364 355.696 157.216 355.612 158.104 355.444L158.104 357.964C157.24 358.18 156.208 358.288 155.008 358.288ZM164.879 332.044C165.623 332.044 166.211 332.26 166.643 332.692C167.099 333.124 167.327 333.736 167.327 334.528C167.327 335.32 167.099 335.932 166.643 336.364C166.211 336.796 165.623 337.012 164.879 337.012C164.135 337.012 163.535 336.796 163.079 336.364C162.647 335.932 162.431 335.32 162.431 334.528C162.431 333.736 162.647 333.124 163.079 332.692C163.535 332.26 164.135 332.044 164.879 332.044ZM166.679 354.94L169.127 356.02L169.127 358H161.207L161.207 356.02L163.655 354.94V342.988L161.207 341.98L161.207 339.928H166.679L166.679 354.94ZM180.999 339.424C183.759 339.424 185.967 340.192 187.623 341.728C189.303 343.24 190.143 345.652 190.143 348.964C190.143 352.276 189.303 354.7 187.623 356.236C185.967 357.748 183.759 358.504 180.999 358.504C178.239 358.504 176.019 357.748 174.339 356.236C172.683 354.7 171.855 352.276 171.855 348.964C171.855 345.652 172.683 343.24 174.339 341.728C176.019 340.192 178.239 339.424 180.999 339.424ZM180.999 342.016C179.559 342.016 178.407 342.22 177.543 342.628C176.703 343.036 176.067 343.744 175.635 344.752C175.227 345.76 175.023 347.164 175.023 348.964C175.023 350.764 175.227 352.168 175.635 353.176C176.067 354.184 176.703 354.892 177.543 355.3C178.407 355.708 179.559 355.912 180.999 355.912C182.439 355.912 183.579 355.708 184.419 355.3C185.283 354.892 185.919 354.184 186.327 353.176C186.759 352.168 186.975 350.764 186.975 348.964C186.975 347.164 186.759 345.76 186.327 344.752C185.919 343.744 185.283 343.036 184.419 342.628C183.579 342.22 182.439 342.016 180.999 342.016ZM214.221 356.02L214.221 358H208.749L208.749 346.084C208.749 344.668 208.401 343.648 207.705 343.024C207.033 342.376 206.037 342.052 204.717 342.052C203.877 342.052 203.049 342.16 202.233 342.376C201.441 342.592 200.277 342.976 198.741 343.528V354.94L201.549 356.02L201.549 358L193.269 358L193.269 356.02L195.717 354.94V342.988L193.269 341.98L193.269 339.928H197.265L198.201 341.404C199.545 340.708 200.817 340.204 202.017 339.892C203.217 339.58 204.441 339.424 205.689 339.424C207.201 339.424 208.401 339.664 209.289 340.144C210.177 340.6 210.813 341.344 211.197 342.376C211.581 343.384 211.773 344.752 211.773 346.48V354.94L214.221 356.02Z" fill="#09814A"/>
<path d="M34.716 467.752C32.556 467.752 30.828 468.076 29.532 468.724C28.236 469.348 27.276 470.38 26.652 471.82C26.052 473.26 25.752 475.204 25.752 477.652C25.752 480.148 26.052 482.14 26.652 483.628C27.276 485.092 28.224 486.148 29.496 486.796C30.768 487.444 32.436 487.768 34.5 487.768C35.82 487.768 37.176 487.66 38.568 487.444C39.984 487.204 41.28 486.832 42.456 486.328V488.992C41.448 489.448 40.236 489.796 38.82 490.036C37.404 490.3 35.964 490.432 34.5 490.432C26.508 490.432 22.512 486.208 22.512 477.76C22.512 473.368 23.568 470.164 25.68 468.148C27.792 466.108 30.9 465.088 35.004 465.088C37.404 465.088 39.888 465.376 42.456 465.952L42.456 472.324H39.936L39.324 468.22C37.836 467.908 36.3 467.752 34.716 467.752ZM59.0208 471.352C60.0768 471.352 60.8448 471.604 61.3248 472.108C61.8048 472.612 62.0448 473.392 62.0448 474.448C62.0448 476.392 60.9408 477.364 58.7328 477.364L57.2928 474.124C56.3568 474.364 55.4088 474.7 54.4488 475.132C53.5128 475.54 52.6728 475.984 51.9288 476.464L51.9288 486.94L55.2768 488.02V490H46.4568V488.02L48.9048 486.94L48.9048 474.988L46.4568 473.98V471.928H50.4528L51.8208 474.088C53.0208 473.2 54.2448 472.528 55.4928 472.072C56.7408 471.592 57.9168 471.352 59.0208 471.352ZM73.4534 471.424C75.9014 471.424 77.8814 472.192 79.3934 473.728C80.9294 475.24 81.6974 477.496 81.6974 480.496V481.936L67.5854 481.936C67.7054 483.544 67.9934 484.78 68.4494 485.644C68.9294 486.484 69.6134 487.072 70.5014 487.408C71.4134 487.744 72.6614 487.912 74.2454 487.912C76.5254 487.912 78.7814 487.636 81.0134 487.084L81.0134 489.676C80.0774 489.916 78.9854 490.108 77.7374 490.252C76.4894 490.42 75.3014 490.504 74.1734 490.504C70.9814 490.504 68.5574 489.784 66.9014 488.344C65.2454 486.904 64.4174 484.444 64.4174 480.964C64.4174 477.724 65.2334 475.324 66.8654 473.764C68.4974 472.204 70.6934 471.424 73.4534 471.424ZM73.2734 474.016C71.4014 474.016 70.0334 474.436 69.1694 475.276C68.3054 476.116 67.7894 477.484 67.6214 479.38L78.4934 479.38C78.3494 477.604 77.8574 476.272 77.0174 475.384C76.1774 474.472 74.9294 474.016 73.2734 474.016ZM103.505 488.02V490H99.2207L98.2847 487.408C97.3007 488.416 96.2327 489.16 95.0807 489.64C93.9527 490.12 92.6807 490.36 91.2647 490.36C88.9607 490.36 87.2567 489.916 86.1527 489.028C85.0487 488.14 84.4967 486.7 84.4967 484.708C84.4967 482.596 85.1567 481.072 86.4767 480.136C87.7967 479.176 89.9207 478.696 92.8487 478.696C94.0007 478.696 95.0087 478.804 95.8727 479.02C96.7607 479.212 97.4807 479.452 98.0327 479.74V478.336C98.0327 477.232 97.8887 476.38 97.6007 475.78C97.3367 475.156 96.8447 474.712 96.1247 474.448C95.4287 474.16 94.4087 474.016 93.0647 474.016C90.6407 474.016 88.1207 474.304 85.5047 474.88V472.288C88.1687 471.712 90.7127 471.424 93.1367 471.424C95.3927 471.424 97.0847 471.652 98.2127 472.108C99.3647 472.564 100.121 473.224 100.481 474.088C100.865 474.952 101.057 476.152 101.057 477.688L101.057 486.94L103.505 488.02ZM87.6647 484.492C87.6647 485.668 87.9527 486.508 88.5287 487.012C89.1287 487.516 90.2087 487.768 91.7687 487.768C92.9207 487.768 94.0247 487.564 95.0807 487.156C96.1607 486.724 97.1447 486.136 98.0327 485.392L98.0327 481.792C96.6887 481.408 95.0687 481.216 93.1727 481.216C91.0847 481.216 89.6447 481.48 88.8527 482.008C88.0607 482.536 87.6647 483.364 87.6647 484.492ZM114.965 490.288C112.661 490.288 111.005 489.82 109.997 488.884C109.013 487.948 108.521 486.364 108.521 484.132L108.521 474.448H105.713V472.432L108.521 471.928L109.601 466.708H111.545L111.545 471.928L117.701 471.964V474.484L111.545 474.448L111.545 484.132C111.545 485.116 111.665 485.86 111.905 486.364C112.145 486.868 112.541 487.216 113.093 487.408C113.645 487.6 114.449 487.696 115.505 487.696C116.321 487.696 117.173 487.612 118.061 487.444V489.964C117.197 490.18 116.165 490.288 114.965 490.288ZM124.836 464.044C125.58 464.044 126.168 464.26 126.6 464.692C127.056 465.124 127.284 465.736 127.284 466.528C127.284 467.32 127.056 467.932 126.6 468.364C126.168 468.796 125.58 469.012 124.836 469.012C124.092 469.012 123.492 468.796 123.036 468.364C122.604 467.932 122.388 467.32 122.388 466.528C122.388 465.736 122.604 465.124 123.036 464.692C123.492 464.26 124.092 464.044 124.836 464.044ZM126.636 486.94L129.084 488.02V490H121.164V488.02L123.612 486.94L123.612 474.988L121.164 473.98V471.928H126.636L126.636 486.94ZM151.18 471.928L151.18 473.944L149.092 474.952L142.684 490H139.228L132.784 474.952L130.696 473.944V471.928L138.544 471.928V473.944L136.096 474.916L141.244 487.336L146.392 474.916L143.944 473.944V471.928H151.18ZM156.863 464.044C157.607 464.044 158.195 464.26 158.627 464.692C159.083 465.124 159.311 465.736 159.311 466.528C159.311 467.32 159.083 467.932 158.627 468.364C158.195 468.796 157.607 469.012 156.863 469.012C156.119 469.012 155.519 468.796 155.063 468.364C154.631 467.932 154.415 467.32 154.415 466.528C154.415 465.736 154.631 465.124 155.063 464.692C155.519 464.26 156.119 464.044 156.863 464.044ZM158.663 486.94L161.111 488.02L161.111 490H153.191L153.191 488.02L155.639 486.94V474.988L153.191 473.98L153.191 471.928H158.663L158.663 486.94ZM172.551 490.288C170.247 490.288 168.591 489.82 167.583 488.884C166.599 487.948 166.107 486.364 166.107 484.132V474.448H163.299L163.299 472.432L166.107 471.928L167.187 466.708H169.131V471.928L175.287 471.964L175.287 474.484L169.131 474.448V484.132C169.131 485.116 169.251 485.86 169.491 486.364C169.731 486.868 170.127 487.216 170.679 487.408C171.231 487.6 172.035 487.696 173.091 487.696C173.907 487.696 174.759 487.612 175.647 487.444L175.647 489.964C174.783 490.18 173.751 490.288 172.551 490.288ZM199.666 471.928L199.666 473.944L196.714 474.952L188.758 492.7C188.158 494.068 187.486 495.124 186.742 495.868C186.022 496.636 185.098 497.188 183.97 497.524C182.866 497.884 181.426 498.064 179.65 498.064H178.93V495.4C179.842 495.472 180.718 495.508 181.558 495.508C182.47 495.508 183.19 495.388 183.718 495.148C184.27 494.908 184.81 494.404 185.338 493.636C185.89 492.892 186.55 491.692 187.318 490.036L180.406 474.952L177.454 473.944L177.454 471.928H186.634L186.634 473.944L183.718 474.916L188.902 486.544L194.014 474.916L191.098 473.944L191.098 471.928H199.666Z" fill="#09814A"/>
<ellipse cx="156" cy="163.5" rx="81" ry="3.5" fill="#09814A"/>
<ellipse cx="156" cy="296.5" rx="81" ry="3.5" fill="#09814A"/>
<ellipse cx="156" cy="427.5" rx="81" ry="3.5" fill="#09814A"/>
</svg>
