<svg width="1440" height="655" viewBox="0 0 1440 655" fill="none" xmlns="http://www.w3.org/2000/svg">
<g clip-path="url(#clip0_3152_2531)">
<mask id="path-1-inside-1_3152_2531" fill="white">
<path d="M0 0H1440V655H0V0Z"/>
</mask>
<path d="M0 0H1440V655H0V0Z" fill="#E3E3E3"/>
<path d="M1437.75 -40.75V671.75H352.25V183.811L551.612 -40.75H1437.75Z" fill="#F5F5F5" stroke="#09814A" stroke-width="0.5"/>
<path d="M1493.75 -40.75V671.75H408.25V183.811L607.612 -40.75H1493.75Z" fill="#F5F5F5" stroke="#09814A" stroke-width="0.5"/>
<path d="M1549.75 -40.75V671.75H464.25V183.811L663.612 -40.75H1549.75Z" fill="#F5F5F5" stroke="#09814A" stroke-width="0.5"/>
<path d="M1605.75 -40.75V671.75H520.25V183.811L719.612 -40.75H1605.75Z" fill="#F5F5F5" stroke="#09814A" stroke-width="0.5"/>
<path d="M1661.75 -40.75V671.75H576.25V183.811L775.612 -40.75H1661.75Z" fill="#F5F5F5" stroke="#09814A" stroke-width="0.5"/>
<path d="M1717.75 -40.75V671.75H632.25V183.811L831.612 -40.75H1717.75Z" fill="#F5F5F5" stroke="#09814A" stroke-width="0.5"/>
<path d="M1773.75 -40.75V671.75H688.25V183.811L887.612 -40.75H1773.75Z" fill="#F5F5F5" stroke="#09814A" stroke-width="0.5"/>
<path d="M1829.75 -40.75V671.75H744.25V183.811L943.612 -40.75H1829.75Z" fill="#F5F5F5" stroke="#09814A" stroke-width="0.5"/>
<path d="M1885.75 -40.75V671.75H800.25V183.811L999.612 -40.75H1885.75Z" fill="#F5F5F5" stroke="#09814A" stroke-width="0.5"/>
<path d="M1941.75 -40.75V671.75H856.25V183.811L1055.61 -40.75H1941.75Z" fill="#F5F5F5" stroke="#09814A" stroke-width="0.5"/>
<path d="M1997.75 -40.75V671.75H912.25V183.811L1111.61 -40.75H1997.75Z" fill="#F5F5F5" stroke="#09814A" stroke-width="0.5"/>
<path d="M2053.75 -40.75V671.75H968.25V183.811L1167.61 -40.75H2053.75Z" fill="#F5F5F5" stroke="#09814A" stroke-width="0.5"/>
<path d="M2109.75 -40.75V671.75H1024.25V183.811L1223.61 -40.75H2109.75Z" fill="#F5F5F5" stroke="#09814A" stroke-width="0.5"/>
<path d="M2165.75 -40.75V671.75H1080.25V183.811L1279.61 -40.75H2165.75Z" fill="#F5F5F5" stroke="#09814A" stroke-width="0.5"/>
<path d="M2221.75 -40.75V671.75H1136.25V183.811L1335.61 -40.75H2221.75Z" fill="#EAEAEA" stroke="#09814A" stroke-width="0.5"/>
<path d="M-789.75 -40.75V671.75H295.75V183.811L96.3876 -40.75H-789.75Z" fill="#F5F5F5" stroke="#09814A" stroke-width="0.5"/>
<path d="M-845.75 -40.75V671.75H239.75V183.811L40.3876 -40.75H-845.75Z" fill="#F5F5F5" stroke="#09814A" stroke-width="0.5"/>
<path d="M-901.75 -40.75V671.75H183.75V183.811L-15.6124 -40.75H-901.75Z" fill="#F5F5F5" stroke="#09814A" stroke-width="0.5"/>
<path d="M-957.75 -40.75V671.75H127.75V183.811L-71.6124 -40.75H-957.75Z" fill="#F5F5F5" stroke="#09814A" stroke-width="0.5"/>
<path d="M-1013.75 -40.75V671.75H71.75V183.811L-127.612 -40.75H-1013.75Z" fill="#F5F5F5" stroke="#09814A" stroke-width="0.5"/>
<path d="M-1069.75 -40.75V671.75H15.75V183.811L-183.612 -40.75H-1069.75Z" fill="#F5F5F5" stroke="#09814A" stroke-width="0.5"/>
</g>
<path d="M1440 654H0V656H1440V654Z" fill="#09814A" mask="url(#path-1-inside-1_3152_2531)"/>
<defs>
<clipPath id="clip0_3152_2531">
<path d="M0 0H1440V655H0V0Z" fill="white"/>
</clipPath>
</defs>
</svg>
