<svg width="1048" height="154" viewBox="0 0 1048 154" fill="none" xmlns="http://www.w3.org/2000/svg">
<path opacity="0.56" d="M440.952 101V43.76H418.812V38H469.752V43.76H447.612V101H440.952ZM500.731 66.17H534.031V71.84H500.731V66.17ZM501.451 95.24H539.341V101H494.791V38H537.991V43.76H501.451V95.24ZM596.581 101.54C591.841 101.54 587.461 100.76 583.441 99.2C579.421 97.58 575.941 95.33 573.001 92.45C570.061 89.57 567.751 86.18 566.071 82.28C564.451 78.38 563.641 74.12 563.641 69.5C563.641 64.88 564.451 60.62 566.071 56.72C567.751 52.82 570.061 49.43 573.001 46.55C576.001 43.67 579.511 41.45 583.531 39.89C587.551 38.27 591.931 37.46 596.671 37.46C601.231 37.46 605.521 38.24 609.541 39.8C613.561 41.3 616.951 43.58 619.711 46.64L615.481 50.87C612.901 48.23 610.051 46.34 606.931 45.2C603.811 44 600.451 43.4 596.851 43.4C593.071 43.4 589.561 44.06 586.321 45.38C583.081 46.64 580.261 48.47 577.861 50.87C575.461 53.21 573.571 55.97 572.191 59.15C570.871 62.27 570.211 65.72 570.211 69.5C570.211 73.28 570.871 76.76 572.191 79.94C573.571 83.06 575.461 85.82 577.861 88.22C580.261 90.56 583.081 92.39 586.321 93.71C589.561 94.97 593.071 95.6 596.851 95.6C600.451 95.6 603.811 95 606.931 93.8C610.051 92.6 612.901 90.68 615.481 88.04L619.711 92.27C616.951 95.33 613.561 97.64 609.541 99.2C605.521 100.76 601.201 101.54 596.581 101.54ZM694.388 38H700.958V101H694.388V38ZM654.968 101H648.308V38H654.968V101ZM695.018 71.93H654.248V66.08H695.018V71.93ZM773.876 101V38H780.536V95.24H815.816V101H773.876ZM831.194 101L859.994 38H866.564L895.364 101H888.344L861.884 41.87H864.584L838.124 101H831.194ZM842.534 84.17L844.514 78.77H881.144L883.124 84.17H842.534ZM920.186 101V38H947.366C954.386 38 959.816 39.41 963.656 42.23C967.556 45.05 969.506 49.04 969.506 54.2C969.506 57.62 968.696 60.5 967.076 62.84C965.516 65.18 963.356 66.95 960.596 68.15C957.896 69.35 954.926 69.95 951.686 69.95L953.216 67.79C957.236 67.79 960.686 68.42 963.566 69.68C966.506 70.88 968.786 72.71 970.406 75.17C972.026 77.57 972.836 80.57 972.836 84.17C972.836 89.51 970.856 93.65 966.896 96.59C962.996 99.53 957.086 101 949.166 101H920.186ZM926.846 95.51H949.076C954.596 95.51 958.826 94.58 961.766 92.72C964.706 90.8 966.176 87.77 966.176 83.63C966.176 79.55 964.706 76.58 961.766 74.72C958.826 72.8 954.596 71.84 949.076 71.84H926.126V66.35H946.916C951.956 66.35 955.856 65.39 958.616 63.47C961.436 61.55 962.846 58.7 962.846 54.92C962.846 51.08 961.436 48.23 958.616 46.37C955.856 44.45 951.956 43.49 946.916 43.49H926.846V95.51ZM1019.81 101.54C1015.13 101.54 1010.63 100.79 1006.31 99.29C1002.05 97.73 998.747 95.75 996.407 93.35L999.017 88.22C1001.24 90.38 1004.21 92.21 1007.93 93.71C1011.71 95.15 1015.67 95.87 1019.81 95.87C1023.77 95.87 1026.98 95.39 1029.44 94.43C1031.96 93.41 1033.79 92.06 1034.93 90.38C1036.13 88.7 1036.73 86.84 1036.73 84.8C1036.73 82.34 1036.01 80.36 1034.57 78.86C1033.19 77.36 1031.36 76.19 1029.08 75.35C1026.8 74.45 1024.28 73.67 1021.52 73.01C1018.76 72.35 1016 71.66 1013.24 70.94C1010.48 70.16 1007.93 69.14 1005.59 67.88C1003.31 66.62 1001.45 64.97 1000.01 62.93C998.627 60.83 997.937 58.1 997.937 54.74C997.937 51.62 998.747 48.77 1000.37 46.19C1002.05 43.55 1004.6 41.45 1008.02 39.89C1011.44 38.27 1015.82 37.46 1021.16 37.46C1024.7 37.46 1028.21 37.97 1031.69 38.99C1035.17 39.95 1038.17 41.3 1040.69 43.04L1038.44 48.35C1035.74 46.55 1032.86 45.23 1029.8 44.39C1026.8 43.55 1023.89 43.13 1021.07 43.13C1017.29 43.13 1014.17 43.64 1011.71 44.66C1009.25 45.68 1007.42 47.06 1006.22 48.8C1005.08 50.48 1004.51 52.4 1004.51 54.56C1004.51 57.02 1005.2 59 1006.58 60.5C1008.02 62 1009.88 63.17 1012.16 64.01C1014.5 64.85 1017.05 65.6 1019.81 66.26C1022.57 66.92 1025.3 67.64 1028 68.42C1030.76 69.2 1033.28 70.22 1035.56 71.48C1037.9 72.68 1039.76 74.3 1041.14 76.34C1042.58 78.38 1043.3 81.05 1043.3 84.35C1043.3 87.41 1042.46 90.26 1040.78 92.9C1039.1 95.48 1036.52 97.58 1033.04 99.2C1029.62 100.76 1025.21 101.54 1019.81 101.54Z" fill="#191919"/>
<path d="M17.3105 101.621C15.0032 99.9929 13.0299 98.0216 11.2589 95.8237C8.51839 92.4123 6.00691 88.8331 3.99617 84.9344C2.88823 82.7903 1.99534 80.5416 0.948372 78.3911C0.505006 77.4924 0.716019 76.9567 1.57408 76.5176C3.777 75.3829 6.00662 74.3071 8.13368 73.0366C11.6132 70.9465 15.4098 69.7272 19.3367 68.9668C24.9537 67.8651 30.5981 67.418 36.1975 69.0919C37.9792 69.6245 39.658 70.3528 41.3111 71.2275C44.8129 73.0799 47.908 75.3652 50.5771 78.291C53.661 81.6459 55.5295 85.5595 55.9857 90.1141C56.0815 91.0286 56.1772 91.9431 56.3339 92.8513C56.4928 93.7798 56.1494 93.8363 55.3955 93.5043C53.953 92.8746 52.5951 92.0716 51.1526 91.4419C46.8047 89.5548 42.4547 87.6474 37.8498 86.4447C32.3797 85.0244 26.9793 83.2886 21.3634 82.4383C20.9666 82.3771 20.5537 82.3587 20.1388 82.3199C19.2072 82.2531 18.7705 82.7919 18.5893 83.6122C18.4284 84.4303 18.2856 85.226 19.2234 85.7442C20.3974 86.3609 21.6603 86.8451 22.948 86.9774C25.8775 87.2871 28.6568 88.1262 31.4662 88.8594C36.1139 90.0781 40.6856 91.5514 45.1929 93.1958C46.7082 93.7357 48.1614 94.4671 49.5417 95.2882C49.8376 95.9558 50.2555 96.6107 49.7384 97.3634C49.3627 97.8958 48.8726 98.3169 48.3355 98.6813C45.9461 100.39 43.3388 101.588 40.4527 102.28C36.5043 103.228 32.6228 103.244 28.7098 102.174C25.8331 101.386 23.1352 100.148 20.4695 98.8249C19.1489 98.1824 18.5915 98.5489 18.566 100.072C18.6329 100.907 18.2186 101.464 17.3105 101.621Z" fill="#34942A"/>
<path d="M17.3098 101.621C18.218 101.464 18.6322 100.907 18.6402 100.002C18.6678 98.4995 19.2232 98.1126 20.5437 98.7551C23.2095 100.079 25.9073 101.317 28.7841 102.104C32.6971 103.174 36.5786 103.158 40.527 102.211C43.4131 101.518 46.0203 100.321 48.4097 98.6116C48.9447 98.2269 49.4369 97.826 49.8127 97.2936C50.3297 96.5409 49.9119 95.8861 49.616 95.2185C51.4938 95.8848 53.3492 96.533 54.8319 97.9393C55.2445 98.3481 55.362 98.6851 55.0642 99.3737C52.8676 104.494 48.4681 106.824 43.5771 108.384C39.3033 109.756 34.904 109.929 30.5387 108.66C26.2365 107.405 22.1335 105.698 18.6247 102.798C18.4451 102.653 18.2816 102.464 18.102 102.319C18.0765 102.075 17.96 101.943 17.6957 101.971C17.561 101.862 17.4263 101.752 17.3098 101.621Z" fill="#104020"/>
<path d="M74.2579 68.1982C73.227 66.8939 72.9556 65.249 72.3983 63.754C70.5405 58.7708 68.1995 54.0277 65.6365 49.3699C63.0137 44.6235 59.9723 40.181 56.419 36.1272C56.2945 35.9746 56.1157 35.8372 55.9617 35.7046C55.1964 35.0167 54.4391 34.0223 53.3217 34.884C51.4854 36.2739 51.2293 37.3285 52.2569 38.9148C53.6036 40.9738 55.4919 42.6243 56.8386 44.6834C59.4474 48.7081 62.1353 52.7224 64.054 57.1267C66.2535 62.2019 68.5025 67.2867 69.8435 72.6832C69.9247 73.0585 70.0108 73.409 70.013 73.7947C64.8227 73.1469 59.857 72.0034 55.4585 68.8641C51.4175 65.9996 48.2279 62.4529 45.7366 58.22C44.828 56.6825 43.5743 55.3349 43.2423 53.4728C43.1914 53.2061 42.996 52.7573 42.5959 52.8337C42.1959 52.9102 42.4256 53.3143 42.4023 53.5666C42.3044 54.6005 41.6413 55.3707 41.1865 56.2583C40.751 57.0469 40.8558 58.0945 39.6804 58.3286C38.3862 55.0728 37.4274 51.6765 37.2049 48.192C36.7667 41.584 37.4958 35.0484 38.9076 28.5682C39.992 23.6424 41.1953 18.7654 42.9384 14.0188C43.279 13.0576 43.849 13.2967 44.3942 13.5309C47.4866 14.7988 50.6863 15.7793 53.7499 17.1957C58.0429 19.1589 62.2823 21.2657 66.1693 23.9975C70.1457 26.7981 73.9695 29.7231 77.2532 33.3138C79.8155 36.1224 81.6782 39.3602 83.4131 42.7273C85.6831 47.1741 86.6891 51.9149 86.7569 56.8589C86.7543 57.2693 86.6231 57.6804 86.571 58.0812C85.6856 58.0121 86.1218 59.0726 85.2928 59.374C84.264 54.0894 82.4062 49.1063 79.9304 44.1315C79.7497 44.5331 79.6515 44.6424 79.6817 44.751C80.0965 47.2455 79.7103 49.7644 80.0508 52.2445C80.8151 57.9657 78.7471 62.9317 75.8271 67.6553C75.43 68.2459 75.017 68.6537 74.2579 68.1982Z" fill="#34942A"/>
<path d="M39.7097 58.3082C40.8852 58.0741 40.7803 57.0265 41.2159 56.2379C41.6954 55.355 42.3289 54.6048 42.4317 53.5462C42.4597 53.2691 42.2252 52.8897 42.6252 52.8133C43.0253 52.7369 43.2207 53.1857 43.2717 53.4524C43.6084 55.2898 44.8573 56.6621 45.7659 58.1996C48.2325 62.4277 51.4468 65.9792 55.4878 68.8437C59.8864 71.983 64.8568 73.1017 70.0423 73.7743C71.2742 75.6313 71.4104 77.8406 71.9315 79.9192C72.063 80.4327 71.6333 80.529 71.223 80.5264C64.8609 80.7555 58.9588 79.2762 53.5009 75.9056C48.4548 72.7947 44.4415 68.7286 41.7511 63.4041C40.9064 61.802 39.9627 60.1807 39.7097 58.3082Z" fill="#104020"/>
<path d="M74.2576 68.1979C74.9871 68.6733 75.4297 68.2456 75.8021 67.6501C78.722 62.9265 80.7901 57.9605 80.0257 52.2393C79.6852 49.7592 80.0714 47.2404 79.6567 44.7458C79.6511 44.642 79.7494 44.5327 79.9053 44.1264C82.3763 49.1258 84.2141 54.0795 85.2678 59.3688C86.0919 59.0922 85.6605 58.0069 86.5459 58.076C86.5474 58.3331 86.5241 58.5854 86.5208 58.8673C86.0424 59.0826 85.9944 59.3301 86.4757 59.629C86.0776 65.2529 83.8754 70.1159 80.2459 74.3936C79.3767 75.4319 78.3782 76.3424 77.4443 77.3168C77.12 77.6648 76.6767 77.964 76.5541 77.2725C76.0223 74.1902 74.8141 71.2849 74.2576 68.1979Z" fill="#104020"/>
<path d="M86.4755 59.6291C86.0141 59.3598 86.0374 59.1075 86.5206 58.8674C86.6753 59.1286 86.6273 59.3761 86.4755 59.6291Z" fill="#34942A"/>
<path d="M167.14 55.08H162.19L159.58 44.28H143.29V91.35L150.85 94.05V99H127.99V94.05L135.55 91.35V44.28H119.26L116.65 55.08H111.7V37.8H167.14V55.08ZM237.59 42.93L230.03 45.54V74.97C230.03 84.15 228.05 90.69 224.09 94.59C220.19 98.43 214.16 100.35 206 100.35C197.66 100.35 191.33 98.43 187.01 94.59C182.69 90.69 180.53 84.36 180.53 75.6V45.54L173.87 42.93V37.8H194.93V42.93L188.27 45.54V74.97C188.27 79.71 188.9 83.46 190.16 86.22C191.48 88.92 193.43 90.84 196.01 91.98C198.65 93.12 202.1 93.69 206.36 93.69C210.38 93.69 213.62 93.18 216.08 92.16C218.54 91.08 220.4 89.25 221.66 86.67C222.92 84.03 223.55 80.34 223.55 75.6V45.54L216.26 42.93V37.8H237.59V42.93ZM267.198 42.93L260.538 45.54V92.52H289.608L291.948 82.17H297.258V99H246.138V94.05L252.798 91.35V45.54L246.138 42.93V37.8H267.198V42.93ZM331.96 64.8C336.94 65.76 340.63 66.78 343.03 67.86C345.49 68.94 347.26 70.56 348.34 72.72C349.48 74.82 350.05 77.88 350.05 81.9C350.05 86.4 349.24 89.94 347.62 92.52C346 95.1 343.45 96.96 339.97 98.1C336.49 99.18 331.75 99.72 325.75 99.72C317.65 99.72 310.15 98.82 303.25 97.02V81H309.46L310.99 91.35C315.79 92.49 320.8 93.06 326.02 93.06C330.46 93.06 333.82 92.73 336.1 92.07C338.44 91.41 340.03 90.39 340.87 89.01C341.71 87.57 342.13 85.62 342.13 83.16C342.13 80.16 341.77 78.06 341.05 76.86C340.33 75.66 338.89 74.73 336.73 74.07C334.57 73.41 330.4 72.51 324.22 71.37L321.97 70.92C317.05 70.02 313.24 68.94 310.54 67.68C307.9 66.36 306.01 64.65 304.87 62.55C303.79 60.45 303.25 57.66 303.25 54.18C303.25 49.92 304.03 46.56 305.59 44.1C307.21 41.58 309.73 39.78 313.15 38.7C316.57 37.62 321.13 37.08 326.83 37.08C333.85 37.08 341.11 37.86 348.61 39.42V55.17H342.67L341.23 45.18C336.67 44.22 331.75 43.74 326.47 43.74C322.33 43.74 319.15 44.07 316.93 44.73C314.71 45.33 313.18 46.29 312.34 47.61C311.56 48.87 311.17 50.61 311.17 52.83C311.17 55.59 311.56 57.57 312.34 58.77C313.18 59.97 314.68 60.9 316.84 61.56C319.06 62.22 323.17 63.12 329.17 64.26L331.96 64.8ZM380.752 42.93L374.092 45.54V91.35L380.752 94.05V99H359.692V94.05L366.352 91.35V45.54L359.692 42.93V37.8H380.752V42.93Z" fill="#191919"/>
</svg>
