<svg width="939" height="154" viewBox="0 0 939 154" fill="none" xmlns="http://www.w3.org/2000/svg">
<path opacity="0.56" d="M331.952 101V43.76H309.812V38H360.752V43.76H338.612V101H331.952ZM391.731 66.17H425.031V71.84H391.731V66.17ZM392.451 95.24H430.341V101H385.791V38H428.991V43.76H392.451V95.24ZM487.581 101.54C482.841 101.54 478.461 100.76 474.441 99.2C470.421 97.58 466.941 95.33 464.001 92.45C461.061 89.57 458.751 86.18 457.071 82.28C455.451 78.38 454.641 74.12 454.641 69.5C454.641 64.88 455.451 60.62 457.071 56.72C458.751 52.82 461.061 49.43 464.001 46.55C467.001 43.67 470.511 41.45 474.531 39.89C478.551 38.27 482.931 37.46 487.671 37.46C492.231 37.46 496.521 38.24 500.541 39.8C504.561 41.3 507.951 43.58 510.711 46.64L506.481 50.87C503.901 48.23 501.051 46.34 497.931 45.2C494.811 44 491.451 43.4 487.851 43.4C484.071 43.4 480.561 44.06 477.321 45.38C474.081 46.64 471.261 48.47 468.861 50.87C466.461 53.21 464.571 55.97 463.191 59.15C461.871 62.27 461.211 65.72 461.211 69.5C461.211 73.28 461.871 76.76 463.191 79.94C464.571 83.06 466.461 85.82 468.861 88.22C471.261 90.56 474.081 92.39 477.321 93.71C480.561 94.97 484.071 95.6 487.851 95.6C491.451 95.6 494.811 95 497.931 93.8C501.051 92.6 503.901 90.68 506.481 88.04L510.711 92.27C507.951 95.33 504.561 97.64 500.541 99.2C496.521 100.76 492.201 101.54 487.581 101.54ZM585.388 38H591.958V101H585.388V38ZM545.968 101H539.308V38H545.968V101ZM586.018 71.93H545.248V66.08H586.018V71.93ZM664.876 101V38H671.536V95.24H706.816V101H664.876ZM722.194 101L750.994 38H757.564L786.364 101H779.344L752.884 41.87H755.584L729.124 101H722.194ZM733.534 84.17L735.514 78.77H772.144L774.124 84.17H733.534ZM811.186 101V38H838.366C845.386 38 850.816 39.41 854.656 42.23C858.556 45.05 860.506 49.04 860.506 54.2C860.506 57.62 859.696 60.5 858.076 62.84C856.516 65.18 854.356 66.95 851.596 68.15C848.896 69.35 845.926 69.95 842.686 69.95L844.216 67.79C848.236 67.79 851.686 68.42 854.566 69.68C857.506 70.88 859.786 72.71 861.406 75.17C863.026 77.57 863.836 80.57 863.836 84.17C863.836 89.51 861.856 93.65 857.896 96.59C853.996 99.53 848.086 101 840.166 101H811.186ZM817.846 95.51H840.076C845.596 95.51 849.826 94.58 852.766 92.72C855.706 90.8 857.176 87.77 857.176 83.63C857.176 79.55 855.706 76.58 852.766 74.72C849.826 72.8 845.596 71.84 840.076 71.84H817.126V66.35H837.916C842.956 66.35 846.856 65.39 849.616 63.47C852.436 61.55 853.846 58.7 853.846 54.92C853.846 51.08 852.436 48.23 849.616 46.37C846.856 44.45 842.956 43.49 837.916 43.49H817.846V95.51ZM910.807 101.54C906.127 101.54 901.627 100.79 897.307 99.29C893.047 97.73 889.747 95.75 887.407 93.35L890.017 88.22C892.237 90.38 895.207 92.21 898.927 93.71C902.707 95.15 906.667 95.87 910.807 95.87C914.767 95.87 917.977 95.39 920.437 94.43C922.957 93.41 924.787 92.06 925.927 90.38C927.127 88.7 927.727 86.84 927.727 84.8C927.727 82.34 927.007 80.36 925.567 78.86C924.187 77.36 922.357 76.19 920.077 75.35C917.797 74.45 915.277 73.67 912.517 73.01C909.757 72.35 906.997 71.66 904.237 70.94C901.477 70.16 898.927 69.14 896.587 67.88C894.307 66.62 892.447 64.97 891.007 62.93C889.627 60.83 888.937 58.1 888.937 54.74C888.937 51.62 889.747 48.77 891.367 46.19C893.047 43.55 895.597 41.45 899.017 39.89C902.437 38.27 906.817 37.46 912.157 37.46C915.697 37.46 919.207 37.97 922.687 38.99C926.167 39.95 929.167 41.3 931.687 43.04L929.437 48.35C926.737 46.55 923.857 45.23 920.797 44.39C917.797 43.55 914.887 43.13 912.067 43.13C908.287 43.13 905.167 43.64 902.707 44.66C900.247 45.68 898.417 47.06 897.217 48.8C896.077 50.48 895.507 52.4 895.507 54.56C895.507 57.02 896.197 59 897.577 60.5C899.017 62 900.877 63.17 903.157 64.01C905.497 64.85 908.047 65.6 910.807 66.26C913.567 66.92 916.297 67.64 918.997 68.42C921.757 69.2 924.277 70.22 926.557 71.48C928.897 72.68 930.757 74.3 932.137 76.34C933.577 78.38 934.297 81.05 934.297 84.35C934.297 87.41 933.457 90.26 931.777 92.9C930.097 95.48 927.517 97.58 924.037 99.2C920.617 100.76 916.207 101.54 910.807 101.54Z" fill="#191919"/>
<path d="M58.14 55.08H53.19L50.58 44.28H34.29V91.35L41.85 94.05V99H18.99V94.05L26.55 91.35V44.28H10.26L7.65 55.08H2.7V37.8H58.14V55.08ZM128.59 42.93L121.03 45.54V74.97C121.03 84.15 119.05 90.69 115.09 94.59C111.19 98.43 105.16 100.35 97.0003 100.35C88.6603 100.35 82.3303 98.43 78.0103 94.59C73.6903 90.69 71.5303 84.36 71.5303 75.6V45.54L64.8703 42.93V37.8H85.9303V42.93L79.2703 45.54V74.97C79.2703 79.71 79.9003 83.46 81.1603 86.22C82.4803 88.92 84.4303 90.84 87.0103 91.98C89.6503 93.12 93.1003 93.69 97.3603 93.69C101.38 93.69 104.62 93.18 107.08 92.16C109.54 91.08 111.4 89.25 112.66 86.67C113.92 84.03 114.55 80.34 114.55 75.6V45.54L107.26 42.93V37.8H128.59V42.93ZM158.198 42.93L151.538 45.54V92.52H180.608L182.948 82.17H188.258V99H137.138V94.05L143.798 91.35V45.54L137.138 42.93V37.8H158.198V42.93ZM222.96 64.8C227.94 65.76 231.63 66.78 234.03 67.86C236.49 68.94 238.26 70.56 239.34 72.72C240.48 74.82 241.05 77.88 241.05 81.9C241.05 86.4 240.24 89.94 238.62 92.52C237 95.1 234.45 96.96 230.97 98.1C227.49 99.18 222.75 99.72 216.75 99.72C208.65 99.72 201.15 98.82 194.25 97.02V81H200.46L201.99 91.35C206.79 92.49 211.8 93.06 217.02 93.06C221.46 93.06 224.82 92.73 227.1 92.07C229.44 91.41 231.03 90.39 231.87 89.01C232.71 87.57 233.13 85.62 233.13 83.16C233.13 80.16 232.77 78.06 232.05 76.86C231.33 75.66 229.89 74.73 227.73 74.07C225.57 73.41 221.4 72.51 215.22 71.37L212.97 70.92C208.05 70.02 204.24 68.94 201.54 67.68C198.9 66.36 197.01 64.65 195.87 62.55C194.79 60.45 194.25 57.66 194.25 54.18C194.25 49.92 195.03 46.56 196.59 44.1C198.21 41.58 200.73 39.78 204.15 38.7C207.57 37.62 212.13 37.08 217.83 37.08C224.85 37.08 232.11 37.86 239.61 39.42V55.17H233.67L232.23 45.18C227.67 44.22 222.75 43.74 217.47 43.74C213.33 43.74 210.15 44.07 207.93 44.73C205.71 45.33 204.18 46.29 203.34 47.61C202.56 48.87 202.17 50.61 202.17 52.83C202.17 55.59 202.56 57.57 203.34 58.77C204.18 59.97 205.68 60.9 207.84 61.56C210.06 62.22 214.17 63.12 220.17 64.26L222.96 64.8ZM271.752 42.93L265.092 45.54V91.35L271.752 94.05V99H250.692V94.05L257.352 91.35V45.54L250.692 42.93V37.8H271.752V42.93Z" fill="#104020"/>
</svg>
